<?xml version="1.0" standalone="no"?><!DOCTYPE svg PUBLIC "-//W3C//DTD SVG 1.1//EN" "http://www.w3.org/Graphics/SVG/1.1/DTD/svg11.dtd"><svg class="icon" width="32px" height="32.00px" viewBox="0 0 1024 1024" version="1.1" xmlns="http://www.w3.org/2000/svg"><path fill="#515151" d="M516.175089 750.945067c-125.839033 0-228.204445-149.068084-228.204445-332.307432 0-8.982582 7.287987-16.270569 16.270569-16.270569l423.868777 0c8.982582 0 16.270569 7.287987 16.270569 16.270569C744.379535 601.876983 642.014122 750.945067 516.175089 750.945067zM320.786027 434.908204c5.550413 157.753907 91.052762 283.497773 195.389062 283.497773S706.013739 592.662111 711.564152 434.908204L320.786027 434.908204zM643.983987 435.755502 388.366192 435.755502l0-16.270569c0-82.738399 57.326637-150.053528 127.808898-150.053528s127.808898 67.315128 127.808898 150.053528L643.983987 435.755502zM421.817048 403.215388l188.716082 0c-6.440689-57.125045-46.310745-101.242845-94.358041-101.242845S428.257737 346.089319 421.817048 403.215388zM516.175089 961.470875c-247.165286 0-448.25314-201.087854-448.25314-448.25314 0-247.175519 201.087854-448.263373 448.25314-448.263373S964.42823 266.042215 964.42823 513.217734C964.42823 760.38302 763.340375 961.470875 516.175089 961.470875zM516.175089 97.494475c-229.221612 0-415.713027 186.491415-415.713027 415.72326 0 229.221612 186.491415 415.713027 415.713027 415.713027S931.888116 742.439346 931.888116 513.217734C931.888116 283.98589 745.396701 97.494475 516.175089 97.494475z" /></svg>