<?xml version="1.0" standalone="no"?><!DOCTYPE svg PUBLIC "-//W3C//DTD SVG 1.1//EN" "http://www.w3.org/Graphics/SVG/1.1/DTD/svg11.dtd"><svg class="icon" width="32px" height="32.00px" viewBox="0 0 1024 1024" version="1.1" xmlns="http://www.w3.org/2000/svg"><path fill="#515151" d="M237.341546 586.438363l15.261589 0c36.676317 0 69.188802-15.931854 91.570555-40.639582 22.381753 24.707728 54.896284 40.639582 91.570555 40.639582 29.039383 0 55.353702-10.191106 76.308967-26.52819 20.958334 16.337083 47.269583 26.52819 76.308967 26.52819 36.678364 0 69.191872-15.931854 91.572602-40.639582 22.381753 24.707728 54.894238 40.639582 91.570555 40.639582l15.262612 0c58.999742 0 106.832144-46.162366 106.832144-103.106286l0-29.457916c0-54.700833-44.144406-99.44592-99.92278-102.884228-49.674353-13.983479-122.453936-24.137747-206.473515-27.983331 4.877077-10.580986 7.616468-22.354124 7.616468-34.776038 0-17.878183-5.655813-34.422997-15.246239-47.973618l65.234747-119.933533-23.645536-14.495132-62.068637 114.117061c-13.380752-9.29469-29.613458-14.755052-47.12632-14.755052-45.756113 0-82.84994 37.180807-82.84994 83.041298 0 12.423961 2.741437 24.200168 7.619538 34.783201-83.948971 3.851725-156.667156 14.000875-206.308763 27.976168-55.780421 3.439332-99.92278 48.183396-99.92278 102.884228l0 29.457916C130.506333 540.275997 178.338734 586.438363 237.341546 586.438363zM764.4128 616.043634c-29.724998 0-56.260351-11.404748-77.001745-29.29214l-24.103978 0c-20.741393 17.887392-47.276746 29.29214-77.003791 29.29214-28.239158 0-53.829999-10.132778-74.211189-26.38288-20.382213 16.250102-45.969984 26.38288-74.213235 26.38288-29.723975 0-56.260351-11.404748-77.000722-29.29214l-24.106024 0c-20.74344 17.887392-47.278793 29.29214-77.003791 29.29214l-14.842033 0c-28.269857 0-83.515089-11.217483-102.246709-29.29214l-11.82635 10.343579 0 254.740822 762.478751 0 0-254.740822-11.82942-10.343579c-18.730597 18.075681-73.978898 29.29214-102.247732 29.29214L764.4128 616.043634zM941.042613 885.010459 82.957387 885.010459c-10.301623 0-18.653849 7.423063-18.653849 16.581654 0 9.156544 8.352225 16.581654 18.653849 16.581654l858.085226 0c10.301623 0 18.653849-7.42511 18.653849-16.581654C959.696462 892.433522 951.344237 885.010459 941.042613 885.010459z" /></svg>