<?xml version="1.0" standalone="no"?><!DOCTYPE svg PUBLIC "-//W3C//DTD SVG 1.1//EN" "http://www.w3.org/Graphics/SVG/1.1/DTD/svg11.dtd"><svg class="icon" width="32px" height="28.77px" viewBox="0 0 1139 1024" version="1.1" xmlns="http://www.w3.org/2000/svg"><path fill="#bfbfbf" d="M985.358491 830.792453H154.566038v96.603773h830.792453z m38.641509 135.245283H115.924528V792.150943h908.075472z"  /><path fill="#bfbfbf" d="M115.924528 400.712453a38.641509 38.641509 0 0 0 19.320755 5.023396h19.320755v57.962264h830.792453V357.433962h-27.049057c5.506415 0 11.109434-0.579623 17.098868-0.483019h28.981132a38.641509 38.641509 0 0 0 19.320755-5.216603V502.339623H115.924528z"  /><path fill="#bfbfbf" d="M569.962264 193.207547a96.603774 96.603774 0 1 1 96.603774-96.603773 96.603774 96.603774 0 0 1-96.603774 96.603773z m0-38.641509a57.962264 57.962264 0 1 0-57.962264-57.962264 57.962264 57.962264 0 0 0 57.962264 57.962264zM48.301887 966.037736a9.660377 9.660377 0 0 0 0 19.320755h1043.320755a9.660377 9.660377 0 0 0 0-19.320755z m0-38.64151h1043.320755a48.301887 48.301887 0 0 1 0 96.603774H48.301887a48.301887 48.301887 0 0 1 0-96.603774z"  /><path fill="#bfbfbf" d="M135.245283 405.735849a38.641509 38.641509 0 0 1-38.641509-38.641509V212.528302a57.962264 57.962264 0 0 1 57.962264-57.962264h830.792453a57.962264 57.962264 0 0 1 57.962264 57.962264v106.264151a38.641509 38.641509 0 0 1-38.64151 38.641509h-28.981132c-29.850566 0-52.262642 5.506415-87.909434 20.866415l-7.341887 3.187925-7.43849 3.284528C822.677736 406.605283 791.184906 415.396226 743.849057 415.396226c-69.264906 0-121.913962-7.245283-204.8-24.633962l-36.129812-7.631698c-13.331321-2.801509-24.440755-4.926792-34.970566-6.858868a550.641509 550.641509 0 0 0-82.113207-9.660377 442.735094 442.735094 0 0 0-138.529812 19.030943s-38.158491 10.723019-48.301886 13.234717A193.690566 193.690566 0 0 1 154.566038 405.735849z m0-38.641509h19.320755a158.913208 158.913208 0 0 0 35.550188-5.699623c9.660377-2.318491 46.563019-12.848302 47.239246-13.041509A479.73434 479.73434 0 0 1 386.994717 328.45283a588.413585 588.413585 0 0 1 87.81283 9.660378c10.916226 1.932075 22.315472 4.153962 35.936604 7.052075l36.226415 7.631698C627.924528 369.799245 677.772075 376.754717 743.849057 376.754717c40.96 0 67.622642-7.438491 113.41283-27.338868l7.43849-3.284528 7.535095-3.284529c40.283774-17.388679 67.622642-24.633962 103.752453-24.054339h28.981132V212.528302a19.320755 19.320755 0 0 0-19.320755-19.320755H154.566038a19.320755 19.320755 0 0 0-19.320755 19.320755z"  /><path fill="#bfbfbf" d="M217.358491 367.09434h28.981132v96.603773h-28.981132V367.09434zM352.603774 367.09434h28.981132v96.603773h-28.981132V367.09434zM487.849057 367.09434h28.981132v96.603773h-28.981132V367.09434zM623.09434 396.075472h28.981132v67.622641h-28.981132v-67.622641zM758.339623 396.075472h28.981132v67.622641h-28.981132v-67.622641zM893.584906 347.773585h28.981132v115.924528h-28.981132V347.773585zM276.48 579.622642A12.461887 12.461887 0 1 1 260.830189 598.943396a62.116226 62.116226 0 1 0 0 97.376604 12.461887 12.461887 0 0 1 15.36 19.320755 86.943396 86.943396 0 1 1 0-136.307925z"  /><path fill="#bfbfbf" d="M268.751698 588.896604m-12.461887 0a12.461887 12.461887 0 1 0 24.923774 0 12.461887 12.461887 0 1 0-24.923774 0Z"  /><path fill="#bfbfbf" d="M268.461887 705.883774m-12.461887 0a12.461887 12.461887 0 1 0 24.923774 0 12.461887 12.461887 0 1 0-24.923774 0Z"  /><path fill="#bfbfbf" d="M881.895849 560.301887h105.587925a12.461887 12.461887 0 0 1 12.461886 12.461887 12.461887 12.461887 0 0 1-12.461886 12.461886H881.895849A12.461887 12.461887 0 0 1 869.433962 572.763774 12.461887 12.461887 0 0 1 881.895849 560.301887zM881.895849 634.783396h105.587925A12.461887 12.461887 0 0 1 999.849057 647.245283a12.461887 12.461887 0 0 1-12.461887 12.461887H881.895849A12.461887 12.461887 0 0 1 869.433962 647.245283a12.461887 12.461887 0 0 1 12.461887-12.461887zM881.895849 709.361509h105.587925a12.461887 12.461887 0 0 1 12.461886 12.461887 12.461887 12.461887 0 0 1-12.55849 12.365283H881.895849A12.461887 12.461887 0 0 1 869.433962 721.726792a12.461887 12.461887 0 0 1 12.461887-12.365283z"  /><path fill="#bfbfbf" d="M881.895849 560.301887a12.461887 12.461887 0 0 1 12.461887 12.461887v148.963018A12.461887 12.461887 0 0 1 881.895849 734.188679 12.461887 12.461887 0 0 1 869.433962 721.726792V572.763774A12.461887 12.461887 0 0 1 881.895849 560.301887z"  /><path fill="#bfbfbf" d="M659.70717 560.301887a12.461887 12.461887 0 0 1 12.461887 12.461887v148.963018A12.461887 12.461887 0 0 1 659.70717 734.188679 12.461887 12.461887 0 0 1 647.245283 721.726792V572.763774A12.461887 12.461887 0 0 1 659.70717 560.301887z"  /><path fill="#bfbfbf" d="M751.577358 562.813585a12.461887 12.461887 0 1 1 14.876982 19.900377L667.14566 656.90566a12.461887 12.461887 0 0 1-14.973585-19.320754z"  /><path fill="#bfbfbf" d="M766.45434 711.873208a12.461887 12.461887 0 1 1-14.876982 19.900377L652.172075 656.90566a12.461887 12.461887 0 0 1 14.973585-19.320754z"  /><path fill="#bfbfbf" d="M446.309434 568.126792a12.461887 12.461887 0 1 1 23.088302 9.177359l-59.024906 149.059623a12.461887 12.461887 0 1 1-23.088302-9.177359z"  /><path fill="#bfbfbf" d="M446.502642 577.690566a12.461887 12.461887 0 1 1 22.79849-9.660377l65.110943 148.769811a12.461887 12.461887 0 0 1-22.79849 9.660377z"  /><path fill="#bfbfbf" d="M419.646792 681.443019a12.461887 12.461887 0 1 1 0-24.82717h80.470944a12.461887 12.461887 0 0 1 0 24.82717z"  /></svg>